<mxfile host="app.diagrams.net" modified="2023-11-18T21:26:40.022Z" agent="Mozilla/5.0 (Windows NT 10.0; Win64; x64) AppleWebKit/537.36 (KHTML, like Gecko) Chrome/119.0.0.0 Safari/537.36" etag="gFogbNyCh2ZHe8Hud1Gy" version="22.1.3" type="device">
  <diagram name="Sayfa -1" id="yBTL2nc49p_NioNcR86B">
    <mxGraphModel dx="1434" dy="780" grid="1" gridSize="10" guides="1" tooltips="1" connect="1" arrows="1" fold="1" page="1" pageScale="1" pageWidth="291" pageHeight="413" math="0" shadow="0">
      <root>
        <mxCell id="0" />
        <mxCell id="1" parent="0" />
        <mxCell id="nrBYL8IWe4sIafaYbRiG-20" value="Cropped Image" style="edgeStyle=orthogonalEdgeStyle;rounded=0;orthogonalLoop=1;jettySize=auto;html=1;" edge="1" parent="1" source="nrBYL8IWe4sIafaYbRiG-4" target="nrBYL8IWe4sIafaYbRiG-8">
          <mxGeometry relative="1" as="geometry" />
        </mxCell>
        <mxCell id="nrBYL8IWe4sIafaYbRiG-4" value="ODM detects" style="shape=process;whiteSpace=wrap;html=1;backgroundOutline=1;fillColor=#d5e8d4;strokeColor=#82b366;" vertex="1" parent="1">
          <mxGeometry x="257" y="147" width="120" height="40" as="geometry" />
        </mxCell>
        <mxCell id="nrBYL8IWe4sIafaYbRiG-22" value="Price Tag Image" style="edgeStyle=orthogonalEdgeStyle;rounded=0;orthogonalLoop=1;jettySize=auto;html=1;" edge="1" parent="1" source="nrBYL8IWe4sIafaYbRiG-5" target="nrBYL8IWe4sIafaYbRiG-4">
          <mxGeometry relative="1" as="geometry" />
        </mxCell>
        <mxCell id="nrBYL8IWe4sIafaYbRiG-5" value="Mobile cam" style="rounded=0;whiteSpace=wrap;html=1;fillColor=#dae8fc;strokeColor=#6c8ebf;" vertex="1" parent="1">
          <mxGeometry x="17" y="147" width="120" height="40" as="geometry" />
        </mxCell>
        <mxCell id="nrBYL8IWe4sIafaYbRiG-17" value="Content String" style="edgeStyle=orthogonalEdgeStyle;rounded=0;orthogonalLoop=1;jettySize=auto;html=1;" edge="1" parent="1" source="nrBYL8IWe4sIafaYbRiG-8" target="nrBYL8IWe4sIafaYbRiG-16">
          <mxGeometry relative="1" as="geometry" />
        </mxCell>
        <mxCell id="nrBYL8IWe4sIafaYbRiG-8" value="OCR" style="shape=process;whiteSpace=wrap;html=1;backgroundOutline=1;fillColor=#ffe6cc;strokeColor=#d79b00;" vertex="1" parent="1">
          <mxGeometry x="497" y="147" width="120" height="40" as="geometry" />
        </mxCell>
        <mxCell id="nrBYL8IWe4sIafaYbRiG-26" style="edgeStyle=orthogonalEdgeStyle;rounded=0;orthogonalLoop=1;jettySize=auto;html=1;" edge="1" parent="1" source="nrBYL8IWe4sIafaYbRiG-16" target="nrBYL8IWe4sIafaYbRiG-4">
          <mxGeometry relative="1" as="geometry">
            <Array as="points">
              <mxPoint x="797" y="267" />
              <mxPoint x="317" y="267" />
            </Array>
          </mxGeometry>
        </mxCell>
        <mxCell id="nrBYL8IWe4sIafaYbRiG-16" value="Text-to-speech" style="shape=process;whiteSpace=wrap;html=1;backgroundOutline=1;fillColor=#f8cecc;strokeColor=#b85450;" vertex="1" parent="1">
          <mxGeometry x="737" y="147" width="120" height="40" as="geometry" />
        </mxCell>
        <mxCell id="nrBYL8IWe4sIafaYbRiG-27" value="Basic Runtime Procedures of&lt;br&gt;Sesli Etiket" style="text;html=1;strokeColor=none;fillColor=none;align=center;verticalAlign=middle;whiteSpace=wrap;rounded=0;" vertex="1" parent="1">
          <mxGeometry x="358" y="80" width="157" height="40" as="geometry" />
        </mxCell>
      </root>
    </mxGraphModel>
  </diagram>
</mxfile>
